<svg width="32" height="32" viewBox="0 0 32 32" fill="none" xmlns="http://www.w3.org/2000/svg">
<path d="M27 12C27 18.0747 16 27 16 27C16 27 5 18.0747 5 12C5 9.08262 6.15893 6.28473 8.22183 4.22183C10.2847 2.15893 13.0826 1 16 1C18.9174 1 21.7153 2.15893 23.7782 4.22183C25.8411 6.28473 27 9.08262 27 12Z" stroke="#999999" stroke-width="1.5" stroke-linecap="round" stroke-linejoin="round"/>
<path d="M16 31C17.1046 31 18 30.1046 18 29C18 27.8954 17.1046 27 16 27C14.8954 27 14 27.8954 14 29C14 30.1046 14.8954 31 16 31Z" stroke="#999999" stroke-width="1.5" stroke-linecap="round" stroke-linejoin="round"/>
<path d="M25 27C26.1046 27 27 26.1046 27 25C27 23.8954 26.1046 23 25 23C23.8954 23 23 23.8954 23 25C23 26.1046 23.8954 27 25 27Z" stroke="#999999" stroke-width="1.5" stroke-linecap="round" stroke-linejoin="round"/>
<path d="M25 22.9999V17.3546" stroke="#999999" stroke-width="1.5" stroke-linecap="round" stroke-linejoin="round"/>
<path d="M7 27C8.10457 27 9 26.1046 9 25C9 23.8954 8.10457 23 7 23C5.89543 23 5 23.8954 5 25C5 26.1046 5.89543 27 7 27Z" stroke="#999999" stroke-width="1.5" stroke-linecap="round" stroke-linejoin="round"/>
<path d="M7 22.9999V17.3546" stroke="#999999" stroke-width="1.5" stroke-linecap="round" stroke-linejoin="round"/>
</svg>
