<svg width="32" height="32" viewBox="0 0 32 32" fill="none" xmlns="http://www.w3.org/2000/svg">
<g clip-path="url(#clip0_27_2562)">
<path d="M16.002 24V31.3333" stroke="#999999" stroke-width="1.5" stroke-linecap="round" stroke-linejoin="round"/>
<path d="M13.335 31.3333H18.6683" stroke="#999999" stroke-width="1.5" stroke-linecap="round" stroke-linejoin="round"/>
<path d="M18.8297 8.43863C20.4003 4.29863 22.9443 0.666626 18.667 0.666626C17.6865 0.89753 16.7734 1.35408 16.0003 1.99996C15.2276 1.35359 14.3144 0.896971 13.3337 0.666626C9.06701 0.666626 11.6097 4.29863 13.1737 8.43863C6.81501 10.4586 6.92034 15.5906 5.42168 24.8066C5.39779 24.9568 5.42403 25.1106 5.49633 25.2444C5.56863 25.3781 5.68297 25.4844 5.82168 25.5466C12.8177 28.4586 16.0003 24 16.0003 24C17.3848 25.1686 19.0664 25.9303 20.858 26.2003C22.6496 26.4703 24.4809 26.238 26.1483 25.5293C26.2948 25.4731 26.4174 25.3682 26.4956 25.2322C26.5738 25.0962 26.6028 24.9375 26.5777 24.7826C25.1657 16.0253 25.3217 10.5013 18.8297 8.43863Z" stroke="#999999" stroke-width="1.5" stroke-linecap="round" stroke-linejoin="round"/>
<path d="M5.76562 22.6067L6.66696 22.6507C6.88829 22.6613 7.10963 22.6667 7.33363 22.6667C9.07613 22.7782 10.8146 22.3943 12.3482 21.5596C13.8818 20.7248 15.1479 19.4732 16.0003 17.9493C17.363 20.5613 21.3603 22.4587 25.3336 22.6507L26.2563 22.6947" stroke="#999999" stroke-width="1.5" stroke-linecap="round" stroke-linejoin="round"/>
</g>
<defs>
<clipPath id="clip0_27_2562">
<rect width="32" height="32" fill="white"/>
</clipPath>
</defs>
</svg>
