<svg width="32" height="32" viewBox="0 0 32 32" fill="none" xmlns="http://www.w3.org/2000/svg">
<g clip-path="url(#clip0_27_2565)">
<path d="M15.9994 32.0013C14.6476 31.9871 13.2998 31.8501 11.9728 31.592H11.9554C11.8656 31.5939 11.7765 31.5747 11.6954 31.536C9.8985 31.1714 8.15366 30.5856 6.50077 29.792C6.04963 29.5929 5.68974 29.2316 5.49243 28.7797C5.29512 28.3278 5.27477 27.8182 5.43543 27.352L9.49677 15.0787C10.0481 13.428 10.1774 11.6655 9.87277 9.95201L8.4221 1.95334C8.3615 1.61878 8.43099 1.27371 8.61638 0.98869C8.80176 0.703672 9.08903 0.500244 9.41943 0.420007L10.9941 0.0333407C11.3055 -0.0392171 11.6325 0.00126791 11.9168 0.147566C12.2011 0.293865 12.4241 0.536451 12.5461 0.832007L13.5754 3.33867H18.4208L19.4528 0.832007C19.5751 0.538119 19.7975 0.297053 20.0806 0.151581C20.3638 0.0061083 20.6893 -0.0343653 20.9994 0.0373407L22.5768 0.418674C23.2608 0.586674 23.6981 1.25867 23.5741 1.94934L22.1234 9.95067C21.8188 11.6628 21.9481 13.424 22.4994 15.0733L26.5608 27.352C26.7208 27.8236 26.6967 28.3382 26.4932 28.7928C26.2897 29.2473 25.9218 29.608 25.4634 29.8027C23.8214 30.5887 22.0888 31.1695 20.3048 31.532C20.2223 31.5711 20.1321 31.5911 20.0408 31.5907H20.0208C18.6973 31.8487 17.3531 31.9857 16.0048 32H16.0021L15.9994 32.0013ZM12.7221 30.376C13.8064 30.5601 14.9036 30.6577 16.0034 30.668C17.0741 30.6587 18.1728 30.5613 19.2714 30.376L18.0061 22.776C17.9884 22.6883 17.9886 22.5978 18.0066 22.5101C18.0246 22.4225 18.0601 22.3393 18.1109 22.2656C18.1617 22.1919 18.2269 22.1292 18.3025 22.0813C18.3781 22.0333 18.4626 22.0011 18.5509 21.9865C18.6392 21.9719 18.7296 21.9752 18.8166 21.9963C18.9036 22.0174 18.9854 22.0558 19.0573 22.1092C19.1291 22.1626 19.1895 22.2299 19.2348 22.3071C19.28 22.3843 19.3093 22.4699 19.3208 22.5587L20.5794 30.1107C22.074 29.7652 23.5259 29.2559 24.9088 28.592C25.2474 28.4453 25.4048 28.1053 25.2941 27.776L21.2328 15.496C21.0972 15.0865 20.9842 14.6699 20.8941 14.248C19.2808 14.5827 17.6381 14.7627 16.0061 14.784C14.3576 14.7622 12.715 14.5827 11.1008 14.248C11.0074 14.684 10.8941 15.1027 10.7621 15.5L6.70077 27.7733C6.64836 27.9283 6.65599 28.0973 6.72215 28.2469C6.78832 28.3965 6.9082 28.5158 7.0581 28.5813C8.43277 29.244 9.8941 29.756 11.4141 30.1107L12.6728 22.5573C12.6868 22.4706 12.7179 22.3875 12.7643 22.3129C12.8107 22.2383 12.8714 22.1736 12.943 22.1227C13.0146 22.0717 13.0955 22.0354 13.1812 22.016C13.2669 21.9965 13.3555 21.9943 13.4421 22.0093C13.6162 22.0387 13.7714 22.1359 13.8739 22.2797C13.9764 22.4234 14.0177 22.6019 13.9888 22.776L12.7221 30.376ZM11.3074 12.9253C12.8688 13.2533 14.4488 13.4307 16.0061 13.4507C17.5798 13.4271 19.1476 13.2512 20.6874 12.9253C20.6445 12.4938 20.6254 12.0603 20.6301 11.6267C19.0874 11.9333 17.5341 12.0973 16.0074 12.1147C14.4482 12.0952 12.894 11.9318 11.3648 11.6267C11.3701 12.0603 11.351 12.4939 11.3074 12.9253ZM11.2674 10.248C12.8381 10.584 14.4314 10.764 16.0074 10.7813C17.595 10.7603 19.1765 10.5817 20.7288 10.248C20.7528 10.064 20.7794 9.88934 20.8101 9.71601L22.2608 1.71467L20.6874 1.33467L19.6528 3.84667C19.5524 4.091 19.3817 4.30001 19.1624 4.44719C18.943 4.59437 18.6849 4.67308 18.4208 4.67334H13.5754C13.3111 4.67379 13.0527 4.59536 12.8332 4.4481C12.6137 4.30083 12.4432 4.09142 12.3434 3.84667L11.3101 1.33467L11.3074 1.32934L9.73543 1.71601L11.1861 9.71601C11.2168 9.88801 11.2434 10.064 11.2674 10.248Z" fill="#999999"/>
</g>
<defs>
<clipPath id="clip0_27_2565">
<rect width="32" height="32" fill="white"/>
</clipPath>
</defs>
</svg>
