<svg width="32" height="32" viewBox="0 0 32 32" fill="none" xmlns="http://www.w3.org/2000/svg">
<g clip-path="url(#clip0_27_2561)">
<path d="M26.6535 26.1334C25.7135 15.8614 19.0188 12.0654 19.0188 12.0654C19.0188 9.19073 21.1441 7.28806 22.5268 6.35473C23.1721 5.91873 23.3828 5.05206 23.0375 4.34273L22.6535 3.55339C22.3375 2.90539 21.6281 2.53473 20.9441 2.71206C19.3055 3.13739 17.8255 4.14939 16.9215 4.87339C16.661 5.08495 16.3357 5.20042 16.0001 5.20042C15.6646 5.20042 15.3393 5.08495 15.0788 4.87339C14.1735 4.14939 12.6935 3.13739 11.0561 2.71206C10.3721 2.53339 9.66282 2.90406 9.34682 3.55339L8.96282 4.34273C8.61748 5.05206 8.82948 5.92006 9.47348 6.35473C10.8561 7.28806 12.9815 9.19073 12.9815 12.0654C12.9815 12.0654 6.28548 15.8614 5.34682 26.1334C5.12682 28.5347 7.78415 30.0494 9.60015 28.5227L9.63348 28.4947C10.7495 27.5574 12.6682 27.4427 13.7215 28.4561C14.9268 29.6161 17.0295 29.6254 18.2495 28.4854C19.3335 27.4734 21.2682 27.5694 22.4015 28.5227C24.2162 30.0507 26.8735 28.5361 26.6535 26.1334Z" stroke="#999999" stroke-width="1.5" stroke-linecap="round" stroke-linejoin="round"/>
<path d="M12.9863 12.0668H19.013" stroke="#999999" stroke-width="1.5" stroke-linecap="round" stroke-linejoin="round"/>
</g>
<defs>
<clipPath id="clip0_27_2561">
<rect width="32" height="32" fill="white"/>
</clipPath>
</defs>
</svg>
