<svg width="32" height="32" viewBox="0 0 32 32" fill="none" xmlns="http://www.w3.org/2000/svg">
<path d="M10.1867 17C4.24672 21.9587 2.22938 26.3333 2.74405 27.88C2.84865 28.1945 3.02976 28.4781 3.27111 28.7052C3.51246 28.9324 3.80647 29.096 4.12672 29.1813L5.88005 29.6493C12.6331 31.4507 19.7403 31.4507 26.4934 29.6493L28.2467 29.1813C28.567 29.096 28.861 28.9324 29.1023 28.7052C29.3437 28.4781 29.5248 28.1945 29.6294 27.88C30.1627 26.28 28.12 21.9547 22.1867 17H10.1867Z" stroke="#999999" stroke-width="1.5" stroke-linecap="round" stroke-linejoin="round"/>
<path d="M10.1865 17C10.0376 14.4014 8.87407 11.9652 6.94652 10.216C6.44972 9.42165 6.18636 8.50358 6.18652 7.56667V6C6.18652 4.67392 6.71331 3.40215 7.65099 2.46447C8.58867 1.52678 9.86044 1 11.1865 1C12.5126 1 13.7844 1.52678 14.7221 2.46447C15.6597 3.40215 16.1865 4.67392 16.1865 6C16.1865 4.67392 16.7133 3.40215 17.651 2.46447C18.5887 1.52678 19.8604 1 21.1865 1C22.5126 1 23.7844 1.52678 24.7221 2.46447C25.6597 3.40215 26.1865 4.67392 26.1865 6V7.56667C26.186 8.50349 25.9227 9.42139 25.4265 10.216C23.499 11.9652 22.3355 14.4014 22.1865 17" stroke="#999999" stroke-width="1.5" stroke-linecap="round" stroke-linejoin="round"/>
<path d="M16.1865 26V31" stroke="#999999" stroke-width="1.5" stroke-linecap="round" stroke-linejoin="round"/>
<path d="M22.1865 26L23.9172 30.2453" stroke="#999999" stroke-width="1.5" stroke-linecap="round" stroke-linejoin="round"/>
<path d="M10.1867 26L8.45605 30.2453" stroke="#999999" stroke-width="1.5" stroke-linecap="round" stroke-linejoin="round"/>
</svg>
