<svg width="105" height="32" viewBox="0 0 105 32" fill="none" xmlns="http://www.w3.org/2000/svg">
<g clip-path="url(#clip0_5_4439)">
<path d="M83.2218 27.6102C83.6794 29.4488 84.4048 30.6546 86.0153 31.8108L79.1193 31.802L80.1409 30.5096C80.4957 29.6557 80.6287 28.5366 80.3822 27.5483L77.5532 16.1644L74.6479 28.0645C74.3642 29.2243 74.8253 30.5291 75.6873 31.1143C75.9321 31.2804 76.0083 31.3706 76.1414 31.8144L71.1131 31.7825C72.2535 30.5131 72.9931 29.5991 73.3408 28.1706L76.3205 15.931L73.6104 3.90011C73.2609 2.34608 72.4823 1.40022 71.0723 0.220994L77.672 0.160885L77.782 0.61525C76.5227 1.20928 76.3666 3.25658 76.6841 4.70807L79.0821 15.6871L82.1434 4.09812C82.4591 2.90121 82.021 1.48155 81.1289 0.873371L80.7138 0.590497C80.6305 0.533922 80.7901 0.18033 80.8256 0.159115L85.7386 0.203314C84.5946 1.50453 83.7964 2.59005 83.3956 4.12641L80.3183 15.9364L83.2182 27.6066L83.2218 27.6102Z" fill="black"/>
<path d="M68.367 31.7914L61.7442 31.832C61.6946 31.5439 61.8436 31.2769 62.1256 31.1266C62.8138 30.3523 63.1986 29.0758 62.9202 27.9478L60.0149 16.168L57.1008 28.0663C56.8188 29.2208 57.2959 30.5344 58.1189 31.1107L58.5357 31.4024C58.6208 31.4625 58.4417 31.8338 58.4062 31.848L53.5518 31.7808C54.7348 30.5379 55.4425 29.6221 55.7937 28.1777L58.7769 15.9328L55.9888 3.62254C55.6624 2.18342 54.8004 1.32597 53.5571 0.220995L60.2047 0.194477C60.3519 0.525085 60.1267 0.823867 59.7666 0.921104C59.1547 1.6442 58.7982 2.85172 59.0306 3.93017L61.5545 15.6004L64.5856 4.26078C64.8499 3.27426 64.5821 2.13569 64.1351 1.35956C63.6704 0.954697 63.4806 0.825635 62.9964 0.213922L68.1897 0.203315C67.0882 1.48331 66.2866 2.52287 65.8981 4.00442L62.7765 15.9364L65.9123 28.5101C66.3433 29.8714 67.1078 30.6228 68.3724 31.7931L68.367 31.7914Z" fill="black"/>
<path d="M24.3199 18.3938C24.2774 16.3518 24.4086 14.0676 23.3675 12.3386L19.2437 12.3492V30.941L24.4476 30.9428C24.9531 30.3611 25.2812 29.7246 25.5792 28.9962C26.0297 26.8181 26.2656 24.7125 26.278 22.4796L26.9573 22.4725V31.8267L14.5808 31.8214C14.54 31.535 14.6784 31.2999 14.9267 31.1231C15.7709 30.5255 16.3385 29.4259 16.3385 28.2643L16.3421 3.73215C16.3421 2.66077 15.8649 1.46563 15.0845 0.926408C14.7174 0.671823 14.5152 0.592265 14.572 0.169724H26.9591V9.51337L26.2834 9.51867C26.2656 7.33348 26.0404 5.28265 25.6289 3.13635C25.3398 2.35138 25.0028 1.68309 24.4494 1.03602L19.2473 1.02895V11.4935L23.2025 11.4864C24.2969 10.0031 24.2206 7.50321 24.3394 5.47183L25.0099 5.49834V18.3691L24.3217 18.3938H24.3199Z" fill="black"/>
<path d="M9.75699 18.3178L9.06704 18.4097C9.1167 16.3695 8.80631 12.3651 7.7705 12.358L5.08343 12.3421L5.09939 27.9249C5.09939 29.1819 5.56054 30.4513 6.52008 31.1249L6.91915 31.4042C7.00429 31.4643 6.83402 31.8267 6.79145 31.848L0.136719 31.7808C1.55741 30.5344 2.22076 29.5867 2.22076 27.9231V4.0769C2.22076 2.91889 1.85361 1.63005 0.998712 0.981212C0.631567 0.703643 0.346009 0.629391 0.36552 0.171491L11.669 0.164417L11.6743 9.45503L11.0163 9.54166C10.8283 6.75536 10.9134 2.63956 9.07946 1.05193L5.08875 1.01657V11.4864L7.81484 11.4935C9.01915 10.2966 8.84179 7.55094 9.07591 5.4453L9.75699 5.49304L9.76054 18.3178H9.75699Z" fill="black"/>
<path d="M40.5247 22.5185L41.1473 22.4654L41.1526 31.8179L29.7285 31.7967C31.0091 30.5945 31.6245 29.7741 31.7398 28.2396L31.7203 3.6137C31.7203 2.14983 30.8867 1.31536 29.7516 0.233371C32.0928 0.155581 34.2336 0.155579 36.573 0.231601C35.4095 1.37724 34.6131 2.26475 34.6131 3.76044L34.599 30.9375L38.524 30.9322C40.3828 29.516 40.3615 25.4197 40.5229 22.5185H40.5247Z" fill="black"/>
<path d="M50.7495 31.8232L44.1941 31.8179C44.1391 31.5368 44.2952 31.3123 44.5701 31.1231C45.3327 30.5962 45.9464 29.5178 45.9482 28.434L45.9571 3.73746C45.9571 2.57414 45.4338 1.45503 44.5736 0.852154C44.3129 0.670055 44.1816 0.480884 44.1816 0.17326L50.8967 0.215689C49.499 1.36309 48.8765 2.45215 48.8765 4.08221L48.8729 27.7498C48.8729 29.0422 49.2525 30.3364 50.2245 31.0647C50.5136 31.2822 50.6342 31.3335 50.753 31.825L50.7495 31.8232Z" fill="black"/>
<path d="M88.6809 31.8356C88.766 31.3494 88.9221 31.3087 89.3194 30.994C90.1388 30.3452 90.6017 29.044 90.6035 27.863L90.6301 4.78762L90.2896 2.48221C90.1441 1.49039 89.4151 1.06608 88.5283 0.215691L95.4189 0.220994C94.2058 1.32066 93.4413 2.23116 93.4396 3.73923L93.4325 28.084C93.4325 29.7034 94.1118 30.5803 95.481 31.7755L88.6809 31.8338V31.8356Z" fill="black"/>
<path d="M104.624 31.8197H98.0986C98.1819 31.3547 98.3433 31.3034 98.7264 31.0046C99.5636 30.354 100.005 29.0758 100.005 27.8842L100.002 3.96906C100.002 2.31602 99.2 1.25878 97.9531 0.192707L104.837 0.217461C103.76 1.28884 102.887 2.01901 102.887 3.4316L102.884 28.5684C102.884 29.608 103.544 30.6139 104.251 31.1143C104.524 31.307 104.663 31.535 104.626 31.8179L104.624 31.8197Z" fill="black"/>
</g>
<defs>
<clipPath id="clip0_5_4439">
<rect width="105" height="32" fill="white"/>
</clipPath>
</defs>
</svg>
